<svg width="450" height="102" viewBox="0 0 450 102" fill="none" xmlns="http://www.w3.org/2000/svg">
<g>
<path d="M44.477 25.477C46.461 25.477 48.207 25.875 49.711 26.676 51.215 27.445 52.398 28.453 53.262 29.699V25.906H60.031V52.691C60.031 55.156 59.535 57.348 58.543 59.27 57.551 61.219 56.062 62.758 54.078 63.875 52.094 65.027 49.695 65.605 46.879 65.605 43.102 65.605 39.996 64.723 37.566 62.965 35.164 61.203 33.805 58.805 33.484 55.766H40.156C40.512 56.98 41.262 57.941 42.414 58.645 43.598 59.379 45.023 59.746 46.688 59.746 48.637 59.746 50.223 59.156 51.438 57.973 52.652 56.82 53.262 55.059 53.262 52.691V48.562C52.398 49.812 51.199 50.852 49.66 51.684 48.156 52.516 46.43 52.934 44.477 52.934 42.238 52.934 40.191 52.355 38.336 51.203 36.477 50.051 35.008 48.438 33.918 46.355 32.863 44.242 32.336 41.828 32.336 39.109 32.336 36.422 32.863 34.035 33.918 31.957 35.008 29.875 36.461 28.277 38.285 27.156 40.141 26.035 42.207 25.477 44.477 25.477ZM53.262 39.203C53.262 37.57 52.941 36.18 52.301 35.027 51.66 33.844 50.797 32.949 49.711 32.34 48.621 31.699 47.453 31.379 46.207 31.379 44.957 31.379 43.805 31.684 42.75 32.293 41.695 32.898 40.828 33.797 40.156 34.98 39.52 36.133 39.199 37.508 39.199 39.109 39.199 40.707 39.52 42.117 40.156 43.332 40.828 44.516 41.695 45.43 42.75 46.066 43.84 46.707 44.988 47.027 46.207 47.027 47.453 47.027 48.621 46.723 49.711 46.117 50.797 45.477 51.66 44.578 52.301 43.43 52.941 42.242 53.262 40.836 53.262 39.203ZM87.473 38.629C87.473 39.59 87.41 40.453 87.281 41.219H67.84C68 43.141 68.672 44.645 69.855 45.73 71.043 46.82 72.496 47.363 74.227 47.363 76.723 47.363 78.496 46.293 79.555 44.148H86.801C86.035 46.707 84.562 48.82 82.387 50.484 80.211 52.117 77.539 52.934 74.371 52.934 71.809 52.934 69.504 52.371 67.457 51.254 65.441 50.102 63.855 48.484 62.707 46.402 61.586 44.324 61.023 41.926 61.023 39.203 61.023 36.453 61.586 34.035 62.707 31.957 63.824 29.875 65.395 28.277 67.41 27.156 69.426 26.035 71.746 25.477 74.371 25.477 76.898 25.477 79.152 26.02 81.137 27.109 83.152 28.195 84.703 29.746 85.793 31.766 86.914 33.746 87.473 36.035 87.473 38.629ZM80.512 36.707C80.48 34.98 79.855 33.605 78.641 32.578 77.426 31.523 75.938 30.996 74.176 30.996 72.512 30.996 71.105 31.508 69.953 32.531 68.832 33.523 68.145 34.918 67.891 36.707ZM100.348 52.934C97.785 52.934 95.484 52.371 93.434 51.254 91.387 50.102 89.77 48.484 88.586 46.402 87.434 44.324 86.859 41.926 86.859 39.203 86.859 36.484 87.449 34.082 88.633 32.004 89.852 29.926 91.5 28.324 93.578 27.203 95.656 26.051 97.977 25.477 100.539 25.477 103.098 25.477 105.418 26.051 107.5 27.203 109.578 28.324 111.211 29.926 112.395 32.004 113.609 34.082 114.219 36.484 114.219 39.203 114.219 41.926 113.594 44.324 112.348 46.402 111.129 48.484 109.465 50.102 107.355 51.254 105.273 52.371 102.938 52.934 100.348 52.934ZM100.348 47.074C101.562 47.074 102.699 46.789 103.754 46.211 104.844 45.605 105.707 44.707 106.348 43.523 106.984 42.34 107.305 40.898 107.305 39.203 107.305 36.676 106.633 34.738 105.289 33.395 103.977 32.02 102.363 31.332 100.441 31.332 98.523 31.332 96.906 32.02 95.594 33.395 94.312 34.738 93.676 36.676 93.676 39.203 93.676 41.73 94.297 43.684 95.547 45.059 96.828 46.402 98.426 47.074 100.348 47.074ZM122.027 30.035C122.891 28.629 124.012 27.523 125.387 26.723 126.797 25.926 128.395 25.523 130.188 25.523V32.578H128.41C126.301 32.578 124.699 33.074 123.613 34.066 122.555 35.059 122.027 36.789 122.027 39.254V52.5H115.309V25.906H122.027ZM141.289 25.477C143.273 25.477 145.02 25.875 146.523 26.676 148.027 27.445 149.211 28.453 150.074 29.699V25.906H156.844V52.691C156.844 55.156 156.348 57.348 155.355 59.27 154.363 61.219 152.875 62.758 150.891 63.875 148.906 65.027 146.504 65.605 143.691 65.605 139.914 65.605 136.809 64.723 134.379 62.965 131.977 61.203 130.617 58.805 130.297 55.766H136.969C137.32 56.98 138.074 57.941 139.227 58.645 140.41 59.379 141.836 59.746 143.5 59.746 145.449 59.746 147.035 59.156 148.25 57.973 149.465 56.82 150.074 55.059 150.074 52.691V48.562C149.211 49.812 148.012 50.852 146.473 51.684 144.969 52.516 143.242 52.934 141.289 52.934 139.051 52.934 137 52.355 135.145 51.203 133.289 50.051 131.816 48.438 130.73 46.355 129.676 44.242 129.145 41.828 129.145 39.109 129.145 36.422 129.676 34.035 130.73 31.957 131.816 29.875 133.273 28.277 135.098 27.156 136.953 26.035 139.02 25.477 141.289 25.477ZM150.074 39.203C150.074 37.57 149.754 36.18 149.113 35.027 148.473 33.844 147.609 32.949 146.523 32.34 145.434 31.699 144.266 31.379 143.02 31.379 141.77 31.379 140.617 31.684 139.562 32.293 138.508 32.898 137.641 33.797 136.969 34.98 136.328 36.133 136.012 37.508 136.012 39.109 136.012 40.707 136.328 42.117 136.969 43.332 137.641 44.516 138.508 45.43 139.562 46.066 140.648 46.707 141.801 47.027 143.02 47.027 144.266 47.027 145.434 46.723 146.523 46.117 147.609 45.477 148.473 44.578 149.113 43.43 149.754 42.242 150.074 40.836 150.074 39.203ZM184.285 38.629C184.285 39.59 184.223 40.453 184.094 41.219H164.652C164.812 43.141 165.484 44.645 166.668 45.73 167.852 46.82 169.309 47.363 171.035 47.363 173.531 47.363 175.309 46.293 176.363 44.148H183.613C182.844 46.707 181.375 48.82 179.195 50.484 177.02 52.117 174.348 52.934 171.18 52.934 168.621 52.934 166.316 52.371 164.27 51.254 162.254 50.102 160.668 48.484 159.516 46.402 158.398 44.324 157.836 41.926 157.836 39.203 157.836 36.453 158.398 34.035 159.516 31.957 160.637 29.875 162.203 28.277 164.223 27.156 166.238 26.035 168.559 25.477 171.18 25.477 173.711 25.477 175.965 26.02 177.949 27.109 179.965 28.195 181.516 29.746 182.605 31.766 183.727 33.746 184.285 36.035 184.285 38.629ZM177.324 36.707C177.293 34.98 176.668 33.605 175.453 32.578 174.238 31.523 172.75 30.996 170.988 30.996 169.324 30.996 167.918 31.508 166.766 32.531 165.645 33.523 164.957 34.918 164.699 36.707ZM229.812 25.906 222.035 52.5H214.789L209.941 33.926 205.094 52.5H197.797L189.973 25.906H196.789L201.492 46.164 206.578 25.906H213.684L218.676 46.117 223.379 25.906ZM254.328 38.629C254.328 39.59 254.262 40.453 254.137 41.219H234.695C234.855 43.141 235.527 44.645 236.711 45.73 237.895 46.82 239.352 47.363 241.078 47.363 243.574 47.363 245.352 46.293 246.406 44.148H253.656C252.887 46.707 251.414 48.82 249.238 50.484 247.062 52.117 244.391 52.934 241.223 52.934 238.664 52.934 236.359 52.371 234.312 51.254 232.297 50.102 230.711 48.484 229.559 46.402 228.441 44.324 227.879 41.926 227.879 39.203 227.879 36.453 228.441 34.035 229.559 31.957 230.68 29.875 232.246 28.277 234.266 27.156 236.281 26.035 238.602 25.477 241.223 25.477 243.75 25.477 246.008 26.02 247.992 27.109 250.008 28.195 251.559 29.746 252.648 31.766 253.77 33.746 254.328 36.035 254.328 38.629ZM247.367 36.707C247.336 34.98 246.711 33.605 245.496 32.578 244.281 31.523 242.793 30.996 241.031 30.996 239.367 30.996 237.961 31.508 236.809 32.531 235.688 33.523 235 34.918 234.742 36.707ZM262.113 29.797C262.977 28.516 264.16 27.477 265.664 26.676 267.199 25.875 268.945 25.477 270.898 25.477 273.168 25.477 275.219 26.035 277.039 27.156 278.898 28.277 280.352 29.875 281.41 31.957 282.496 34.004 283.039 36.387 283.039 39.109 283.039 41.828 282.496 44.242 281.41 46.355 280.352 48.438 278.898 50.051 277.039 51.203 275.219 52.355 273.168 52.934 270.898 52.934 268.914 52.934 267.168 52.547 265.664 51.781 264.191 50.98 263.008 49.957 262.113 48.707V52.5H255.395V16.98H262.113ZM276.176 39.109C276.176 37.508 275.84 36.133 275.168 34.98 274.527 33.797 273.664 32.898 272.578 32.293 271.52 31.684 270.367 31.379 269.121 31.379 267.906 31.379 266.754 31.699 265.664 32.34 264.609 32.949 263.746 33.844 263.074 35.027 262.434 36.211 262.113 37.605 262.113 39.203 262.113 40.805 262.434 42.195 263.074 43.379 263.746 44.562 264.609 45.477 265.664 46.117 266.754 46.723 267.906 47.027 269.121 47.027 270.367 47.027 271.52 46.707 272.578 46.066 273.664 45.43 274.527 44.516 275.168 43.332 275.84 42.148 276.176 40.738 276.176 39.109ZM289.953 39.109C289.953 36.422 290.48 34.035 291.535 31.957 292.625 29.875 294.098 28.277 295.953 27.156 297.809 26.035 299.875 25.477 302.145 25.477 303.871 25.477 305.523 25.859 307.09 26.629 308.656 27.363 309.906 28.355 310.832 29.605V16.98H317.648V52.5H310.832V48.562C310 49.875 308.832 50.934 307.328 51.73 305.824 52.531 304.082 52.934 302.098 52.934 299.859 52.934 297.809 52.355 295.953 51.203 294.098 50.051 292.625 48.438 291.535 46.355 290.48 44.242 289.953 41.828 289.953 39.109ZM310.883 39.203C310.883 37.57 310.562 36.18 309.922 35.027 309.281 33.844 308.418 32.949 307.328 32.34 306.242 31.699 305.074 31.379 303.824 31.379 302.578 31.379 301.426 31.684 300.367 32.293 299.312 32.898 298.449 33.797 297.777 34.98 297.137 36.133 296.816 37.508 296.816 39.109 296.816 40.707 297.137 42.117 297.777 43.332 298.449 44.516 299.312 45.43 300.367 46.066 301.457 46.707 302.609 47.027 303.824 47.027 305.074 47.027 306.242 46.723 307.328 46.117 308.418 45.477 309.281 44.578 309.922 43.43 310.562 42.242 310.883 40.836 310.883 39.203ZM345.094 38.629C345.094 39.59 345.027 40.453 344.902 41.219H325.461C325.621 43.141 326.293 44.645 327.477 45.73 328.66 46.82 330.117 47.363 331.844 47.363 334.34 47.363 336.117 46.293 337.172 44.148H344.422C343.652 46.707 342.18 48.82 340.004 50.484 337.828 52.117 335.156 52.934 331.988 52.934 329.43 52.934 327.125 52.371 325.078 51.254 323.059 50.102 321.477 48.484 320.324 46.402 319.203 44.324 318.645 41.926 318.645 39.203 318.645 36.453 319.203 34.035 320.324 31.957 321.445 29.875 323.012 28.277 325.027 27.156 327.043 26.035 329.363 25.477 331.988 25.477 334.516 25.477 336.773 26.02 338.758 27.109 340.773 28.195 342.324 29.746 343.414 31.766 344.531 33.746 345.094 36.035 345.094 38.629ZM338.133 36.707C338.102 34.98 337.477 33.605 336.262 32.578 335.043 31.523 333.555 30.996 331.797 30.996 330.133 30.996 328.723 31.508 327.57 32.531 326.453 33.523 325.766 34.918 325.508 36.707ZM357.246 46.309 363.965 25.906H371.117L361.277 52.5H353.117L343.324 25.906H350.527ZM357.246 46.309" fill="#ff0000"/>
<path d="M377.797 54.641C377.445 55.562 376.883 56.258 376.105 56.719 375.348 57.203 374.57 57.441 373.773 57.441H370.527L386.539 16.012C386.852 15.18 387.352 14.531 388.035 14.07 388.723 13.605 389.508 13.375 390.395 13.375H393.668ZM421.07 34.52V37.547L398.84 49.172V43.789C398.84 43.383 398.934 43.012 399.117 42.68 399.324 42.348 399.664 42.066 400.145 41.848L409.219 37.102C409.684 36.879 410.164 36.684 410.664 36.52 411.16 36.332 411.699 36.176 412.273 36.047 411.699 35.918 411.16 35.77 410.664 35.602 410.164 35.418 409.684 35.215 409.219 34.992L400.145 30.219C399.664 29.996 399.324 29.719 399.117 29.387 398.934 29.055 398.84 28.691 398.84 28.305V22.922ZM421.07 34.52" fill="#ff0000"/>
<path d="M17.148 39.41C16.207 39.871 15.133 40.242 13.93 40.52 15.133 40.797 16.207 41.168 17.148 41.629L25.031 45.902C25.531 46.145 25.883 46.449 26.086 46.816 26.309 47.168 26.418 47.559 26.418 47.984V53.949L3.941 42.211V38.855L26.418 27.086V33.055C26.418 33.48 26.309 33.879 26.086 34.246 25.883 34.598 25.531 34.902 25.031 35.164ZM17.148 39.41" fill="#ff0000"/>
<path transform="matrix(1,0,0,-1,0,76.5)" d="M-1 6H443.79063V70.24334H-1Z" fill="#0c1125"/>
<path transform="matrix(1,0,0,-1,0,76.5)" stroke-width=".7558" stroke-linecap="butt" stroke-miterlimit="10" stroke-linejoin="miter" fill="none" stroke="#0c1125" d="M-1 6H443.79063V70.24334H-1Z"/>
<text fill="#ffffff" xml:space="preserve" transform="matrix(1 0 -0 1 0 76.5)" font-size="40" font-family="Courier" font-weight="bold"><tspan y="-13" x="15 42 69 96 123 150 177 204 231 258 285 312 339 366 393">&#x003c;dinesh balan/&#x003e;</tspan></text>
</g>
</svg>

